STARTFONT 2.1
COMMENT @@@@@@@@@@@@@@@@@@@@@@@@
FONT --LW_Barrows-Regular-R-Normal--9-90-72-72-C-50-FONTSPECIFIC-0
SIZE 9 72 72
FONTBOUNDINGBOX 5 8 0 -2
STARTPROPERTIES 21
FONT_ASCENT 6
FONT_DESCENT 3
PIXEL_SIZE 9
RESOLUTION_X 72
RESOLUTION_Y 72
POINT_SIZE 90
FACE_NAME "LW_Barrows Regular 5x9"
FOUNDRY ""
FAMILY_NAME "LW_Barrows"
WEIGHT_NAME "Regular"
RELATIVE_WEIGHT 50
SLANT "R"
SPACING "C"
SETWIDTH_NAME "Normal"
RELATIVE_SETWIDTH 50
ADD_STYLE_NAME ""
AVERAGE_WIDTH 50
STRIKEOUT_ASCENT 0
STRIKEOUT_DESCENT 1
CHARSET_REGISTRY "FONTSPECIFIC"
CHARSET_ENCODING "0"
ENDPROPERTIES
CHARS 95
STARTCHAR char20
ENCODING 32
SWIDTH 556 0
DWIDTH 5 0
BBX 5 9 0 -3
BITMAP 
00
00
00
00
00
00
00
00
00
ENDCHAR
STARTCHAR char21
ENCODING 33
SWIDTH 556 0
DWIDTH 5 0
BBX 5 9 0 -3
BITMAP 
80
80
80
80
00
80
00
00
00
ENDCHAR
STARTCHAR char22
ENCODING 34
SWIDTH 556 0
DWIDTH 5 0
BBX 5 9 0 -3
BITMAP 
A0
A0
00
00
00
00
00
00
00
ENDCHAR
STARTCHAR char23
ENCODING 35
SWIDTH 556 0
DWIDTH 5 0
BBX 5 9 0 -3
BITMAP 
28
78
50
F0
A0
00
00
00
00
ENDCHAR
STARTCHAR char24
ENCODING 36
SWIDTH 556 0
DWIDTH 5 0
BBX 5 9 0 -3
BITMAP 
E0
A0
40
20
A0
E0
40
00
00
ENDCHAR
STARTCHAR char25
ENCODING 37
SWIDTH 556 0
DWIDTH 5 0
BBX 5 9 0 -3
BITMAP 
50
B0
E0
70
D0
A0
00
00
00
ENDCHAR
STARTCHAR char26
ENCODING 38
SWIDTH 556 0
DWIDTH 5 0
BBX 5 9 0 -3
BITMAP 
60
80
40
A8
90
68
00
00
00
ENDCHAR
STARTCHAR char27
ENCODING 39
SWIDTH 556 0
DWIDTH 5 0
BBX 5 9 0 -3
BITMAP 
80
80
00
00
00
00
00
00
00
ENDCHAR
STARTCHAR char28
ENCODING 40
SWIDTH 556 0
DWIDTH 5 0
BBX 5 9 0 -3
BITMAP 
40
80
80
80
80
80
40
00
00
ENDCHAR
STARTCHAR char29
ENCODING 41
SWIDTH 556 0
DWIDTH 5 0
BBX 5 9 0 -3
BITMAP 
80
40
40
40
40
40
80
00
00
ENDCHAR
STARTCHAR char2A
ENCODING 42
SWIDTH 556 0
DWIDTH 5 0
BBX 5 9 0 -3
BITMAP 
40
E0
E0
40
00
00
00
00
00
ENDCHAR
STARTCHAR char2B
ENCODING 43
SWIDTH 556 0
DWIDTH 5 0
BBX 5 9 0 -3
BITMAP 
00
20
20
F8
20
20
00
00
00
ENDCHAR
STARTCHAR char2C
ENCODING 44
SWIDTH 556 0
DWIDTH 5 0
BBX 5 9 0 -3
BITMAP 
00
00
00
00
00
40
40
80
00
ENDCHAR
STARTCHAR char2D
ENCODING 45
SWIDTH 556 0
DWIDTH 5 0
BBX 5 9 0 -3
BITMAP 
00
00
00
F0
00
00
00
00
00
ENDCHAR
STARTCHAR char2E
ENCODING 46
SWIDTH 556 0
DWIDTH 5 0
BBX 5 9 0 -3
BITMAP 
00
00
00
00
00
80
00
00
00
ENDCHAR
STARTCHAR char2F
ENCODING 47
SWIDTH 556 0
DWIDTH 5 0
BBX 5 9 0 -3
BITMAP 
20
20
40
40
80
80
00
00
00
ENDCHAR
STARTCHAR char30
ENCODING 48
SWIDTH 556 0
DWIDTH 5 0
BBX 5 9 0 -3
BITMAP 
60
90
90
90
90
60
00
00
00
ENDCHAR
STARTCHAR char31
ENCODING 49
SWIDTH 556 0
DWIDTH 5 0
BBX 5 9 0 -3
BITMAP 
C0
40
40
40
40
E0
00
00
00
ENDCHAR
STARTCHAR char32
ENCODING 50
SWIDTH 556 0
DWIDTH 5 0
BBX 5 9 0 -3
BITMAP 
60
90
10
20
40
F0
00
00
00
ENDCHAR
STARTCHAR char33
ENCODING 51
SWIDTH 556 0
DWIDTH 5 0
BBX 5 9 0 -3
BITMAP 
60
90
20
10
90
60
00
00
00
ENDCHAR
STARTCHAR char34
ENCODING 52
SWIDTH 556 0
DWIDTH 5 0
BBX 5 9 0 -3
BITMAP 
10
30
50
F0
10
10
00
00
00
ENDCHAR
STARTCHAR char35
ENCODING 53
SWIDTH 556 0
DWIDTH 5 0
BBX 5 9 0 -3
BITMAP 
F0
80
E0
10
90
60
00
00
00
ENDCHAR
STARTCHAR char36
ENCODING 54
SWIDTH 556 0
DWIDTH 5 0
BBX 5 9 0 -3
BITMAP 
20
40
E0
90
90
60
00
00
00
ENDCHAR
STARTCHAR char37
ENCODING 55
SWIDTH 556 0
DWIDTH 5 0
BBX 5 9 0 -3
BITMAP 
F0
90
20
20
40
40
00
00
00
ENDCHAR
STARTCHAR char38
ENCODING 56
SWIDTH 556 0
DWIDTH 5 0
BBX 5 9 0 -3
BITMAP 
60
90
60
90
90
60
00
00
00
ENDCHAR
STARTCHAR char39
ENCODING 57
SWIDTH 556 0
DWIDTH 5 0
BBX 5 9 0 -3
BITMAP 
60
90
90
70
20
40
00
00
00
ENDCHAR
STARTCHAR char3A
ENCODING 58
SWIDTH 556 0
DWIDTH 5 0
BBX 5 9 0 -3
BITMAP 
00
00
80
00
00
80
00
00
00
ENDCHAR
STARTCHAR char3B
ENCODING 59
SWIDTH 556 0
DWIDTH 5 0
BBX 5 9 0 -3
BITMAP 
00
00
40
00
00
40
40
80
00
ENDCHAR
STARTCHAR char3C
ENCODING 60
SWIDTH 556 0
DWIDTH 5 0
BBX 5 9 0 -3
BITMAP 
00
20
40
80
40
20
00
00
00
ENDCHAR
STARTCHAR char3D
ENCODING 61
SWIDTH 556 0
DWIDTH 5 0
BBX 5 9 0 -3
BITMAP 
00
00
F0
00
F0
00
00
00
00
ENDCHAR
STARTCHAR char3E
ENCODING 62
SWIDTH 556 0
DWIDTH 5 0
BBX 5 9 0 -3
BITMAP 
00
80
40
20
40
80
00
00
00
ENDCHAR
STARTCHAR char3F
ENCODING 63
SWIDTH 556 0
DWIDTH 5 0
BBX 5 9 0 -3
BITMAP 
60
90
20
40
00
40
00
00
00
ENDCHAR
STARTCHAR char40
ENCODING 64
SWIDTH 556 0
DWIDTH 5 0
BBX 5 9 0 -3
BITMAP 
60
90
B0
D0
B0
80
60
00
00
ENDCHAR
STARTCHAR char41
ENCODING 65
SWIDTH 556 0
DWIDTH 5 0
BBX 5 9 0 -3
BITMAP 
60
90
90
F0
90
90
00
00
00
ENDCHAR
STARTCHAR char42
ENCODING 66
SWIDTH 556 0
DWIDTH 5 0
BBX 5 9 0 -3
BITMAP 
E0
50
60
50
50
E0
00
00
00
ENDCHAR
STARTCHAR char43
ENCODING 67
SWIDTH 556 0
DWIDTH 5 0
BBX 5 9 0 -3
BITMAP 
70
90
80
80
90
60
00
00
00
ENDCHAR
STARTCHAR char44
ENCODING 68
SWIDTH 556 0
DWIDTH 5 0
BBX 5 9 0 -3
BITMAP 
E0
50
50
50
50
E0
00
00
00
ENDCHAR
STARTCHAR char45
ENCODING 69
SWIDTH 556 0
DWIDTH 5 0
BBX 5 9 0 -3
BITMAP 
F0
40
60
40
40
F0
00
00
00
ENDCHAR
STARTCHAR char46
ENCODING 70
SWIDTH 556 0
DWIDTH 5 0
BBX 5 9 0 -3
BITMAP 
F0
40
60
40
40
E0
00
00
00
ENDCHAR
STARTCHAR char47
ENCODING 71
SWIDTH 556 0
DWIDTH 5 0
BBX 5 9 0 -3
BITMAP 
60
90
80
B0
90
60
00
00
00
ENDCHAR
STARTCHAR char48
ENCODING 72
SWIDTH 556 0
DWIDTH 5 0
BBX 5 9 0 -3
BITMAP 
D8
50
70
50
50
D8
00
00
00
ENDCHAR
STARTCHAR char49
ENCODING 73
SWIDTH 556 0
DWIDTH 5 0
BBX 5 9 0 -3
BITMAP 
E0
40
40
40
40
E0
00
00
00
ENDCHAR
STARTCHAR char4A
ENCODING 74
SWIDTH 556 0
DWIDTH 5 0
BBX 5 9 0 -3
BITMAP 
38
10
10
90
90
60
00
00
00
ENDCHAR
STARTCHAR char4B
ENCODING 75
SWIDTH 556 0
DWIDTH 5 0
BBX 5 9 0 -3
BITMAP 
90
A0
C0
C0
A0
90
00
00
00
ENDCHAR
STARTCHAR char4C
ENCODING 76
SWIDTH 556 0
DWIDTH 5 0
BBX 5 9 0 -3
BITMAP 
E0
40
40
40
50
F0
00
00
00
ENDCHAR
STARTCHAR char4D
ENCODING 77
SWIDTH 556 0
DWIDTH 5 0
BBX 5 9 0 -3
BITMAP 
88
D8
A8
88
88
88
00
00
00
ENDCHAR
STARTCHAR char4E
ENCODING 78
SWIDTH 556 0
DWIDTH 5 0
BBX 5 9 0 -3
BITMAP 
90
D0
D0
B0
B0
90
00
00
00
ENDCHAR
STARTCHAR char4F
ENCODING 79
SWIDTH 556 0
DWIDTH 5 0
BBX 5 9 0 -3
BITMAP 
60
90
90
90
90
60
00
00
00
ENDCHAR
STARTCHAR char50
ENCODING 80
SWIDTH 556 0
DWIDTH 5 0
BBX 5 9 0 -3
BITMAP 
E0
50
50
60
40
E0
00
00
00
ENDCHAR
STARTCHAR char51
ENCODING 81
SWIDTH 556 0
DWIDTH 5 0
BBX 5 9 0 -3
BITMAP 
60
90
90
90
90
60
10
00
00
ENDCHAR
STARTCHAR char52
ENCODING 82
SWIDTH 556 0
DWIDTH 5 0
BBX 5 9 0 -3
BITMAP 
E0
50
50
60
50
C8
00
00
00
ENDCHAR
STARTCHAR char53
ENCODING 83
SWIDTH 556 0
DWIDTH 5 0
BBX 5 9 0 -3
BITMAP 
70
90
60
10
90
E0
00
00
00
ENDCHAR
STARTCHAR char54
ENCODING 84
SWIDTH 556 0
DWIDTH 5 0
BBX 5 9 0 -3
BITMAP 
F8
A8
A8
20
20
70
00
00
00
ENDCHAR
STARTCHAR char55
ENCODING 85
SWIDTH 556 0
DWIDTH 5 0
BBX 5 9 0 -3
BITMAP 
D8
90
90
90
90
60
00
00
00
ENDCHAR
STARTCHAR char56
ENCODING 86
SWIDTH 556 0
DWIDTH 5 0
BBX 5 9 0 -3
BITMAP 
D8
88
50
50
20
20
00
00
00
ENDCHAR
STARTCHAR char57
ENCODING 87
SWIDTH 556 0
DWIDTH 5 0
BBX 5 9 0 -3
BITMAP 
F8
A8
A8
50
50
50
00
00
00
ENDCHAR
STARTCHAR char58
ENCODING 88
SWIDTH 556 0
DWIDTH 5 0
BBX 5 9 0 -3
BITMAP 
D8
50
20
20
50
D8
00
00
00
ENDCHAR
STARTCHAR char59
ENCODING 89
SWIDTH 556 0
DWIDTH 5 0
BBX 5 9 0 -3
BITMAP 
D8
50
20
20
20
70
00
00
00
ENDCHAR
STARTCHAR char5A
ENCODING 90
SWIDTH 556 0
DWIDTH 5 0
BBX 5 9 0 -3
BITMAP 
F0
90
20
40
90
F0
00
00
00
ENDCHAR
STARTCHAR char5B
ENCODING 91
SWIDTH 556 0
DWIDTH 5 0
BBX 5 9 0 -3
BITMAP 
C0
80
80
80
80
80
80
C0
00
ENDCHAR
STARTCHAR char5C
ENCODING 92
SWIDTH 556 0
DWIDTH 5 0
BBX 5 9 0 -3
BITMAP 
80
80
40
40
20
20
00
00
00
ENDCHAR
STARTCHAR char5D
ENCODING 93
SWIDTH 556 0
DWIDTH 5 0
BBX 5 9 0 -3
BITMAP 
C0
40
40
40
40
40
40
C0
00
ENDCHAR
STARTCHAR char5E
ENCODING 94
SWIDTH 556 0
DWIDTH 5 0
BBX 5 9 0 -3
BITMAP 
60
90
00
00
00
00
00
00
00
ENDCHAR
STARTCHAR char5F
ENCODING 95
SWIDTH 556 0
DWIDTH 5 0
BBX 5 9 0 -3
BITMAP 
00
00
00
00
00
00
00
F8
00
ENDCHAR
STARTCHAR char60
ENCODING 96
SWIDTH 556 0
DWIDTH 5 0
BBX 5 9 0 -3
BITMAP 
80
40
00
00
00
00
00
00
00
ENDCHAR
STARTCHAR char61
ENCODING 97
SWIDTH 556 0
DWIDTH 5 0
BBX 5 9 0 -3
BITMAP 
00
00
E0
70
90
70
00
00
00
ENDCHAR
STARTCHAR char62
ENCODING 98
SWIDTH 556 0
DWIDTH 5 0
BBX 5 9 0 -3
BITMAP 
80
80
E0
90
90
E0
00
00
00
ENDCHAR
STARTCHAR char63
ENCODING 99
SWIDTH 556 0
DWIDTH 5 0
BBX 5 9 0 -3
BITMAP 
00
00
70
90
80
70
00
00
00
ENDCHAR
STARTCHAR char64
ENCODING 100
SWIDTH 556 0
DWIDTH 5 0
BBX 5 9 0 -3
BITMAP 
30
10
70
90
90
78
00
00
00
ENDCHAR
STARTCHAR char65
ENCODING 101
SWIDTH 556 0
DWIDTH 5 0
BBX 5 9 0 -3
BITMAP 
00
00
60
B0
C0
70
00
00
00
ENDCHAR
STARTCHAR char66
ENCODING 102
SWIDTH 556 0
DWIDTH 5 0
BBX 5 9 0 -3
BITMAP 
30
40
F0
40
40
F0
00
00
00
ENDCHAR
STARTCHAR char67
ENCODING 103
SWIDTH 556 0
DWIDTH 5 0
BBX 5 9 0 -3
BITMAP 
00
00
70
90
90
70
10
60
00
ENDCHAR
STARTCHAR char68
ENCODING 104
SWIDTH 556 0
DWIDTH 5 0
BBX 5 9 0 -3
BITMAP 
80
80
E0
90
90
90
00
00
00
ENDCHAR
STARTCHAR char69
ENCODING 105
SWIDTH 556 0
DWIDTH 5 0
BBX 5 9 0 -3
BITMAP 
40
00
C0
40
40
E0
00
00
00
ENDCHAR
STARTCHAR char6A
ENCODING 106
SWIDTH 556 0
DWIDTH 5 0
BBX 5 9 0 -3
BITMAP 
20
00
E0
20
20
20
20
C0
00
ENDCHAR
STARTCHAR char6B
ENCODING 107
SWIDTH 556 0
DWIDTH 5 0
BBX 5 9 0 -3
BITMAP 
C0
40
50
60
50
D8
00
00
00
ENDCHAR
STARTCHAR char6C
ENCODING 108
SWIDTH 556 0
DWIDTH 5 0
BBX 5 9 0 -3
BITMAP 
C0
40
40
40
40
E0
00
00
00
ENDCHAR
STARTCHAR char6D
ENCODING 109
SWIDTH 556 0
DWIDTH 5 0
BBX 5 9 0 -3
BITMAP 
00
00
D0
A8
A8
A8
00
00
00
ENDCHAR
STARTCHAR char6E
ENCODING 110
SWIDTH 556 0
DWIDTH 5 0
BBX 5 9 0 -3
BITMAP 
00
00
E0
90
90
90
00
00
00
ENDCHAR
STARTCHAR char6F
ENCODING 111
SWIDTH 556 0
DWIDTH 5 0
BBX 5 9 0 -3
BITMAP 
00
00
60
90
90
60
00
00
00
ENDCHAR
STARTCHAR char70
ENCODING 112
SWIDTH 556 0
DWIDTH 5 0
BBX 5 9 0 -3
BITMAP 
00
00
E0
90
90
E0
80
C0
00
ENDCHAR
STARTCHAR char71
ENCODING 113
SWIDTH 556 0
DWIDTH 5 0
BBX 5 9 0 -3
BITMAP 
00
00
70
90
90
70
10
38
00
ENDCHAR
STARTCHAR char72
ENCODING 114
SWIDTH 556 0
DWIDTH 5 0
BBX 5 9 0 -3
BITMAP 
00
00
B0
40
40
E0
00
00
00
ENDCHAR
STARTCHAR char73
ENCODING 115
SWIDTH 556 0
DWIDTH 5 0
BBX 5 9 0 -3
BITMAP 
00
00
70
E0
10
E0
00
00
00
ENDCHAR
STARTCHAR char74
ENCODING 116
SWIDTH 556 0
DWIDTH 5 0
BBX 5 9 0 -3
BITMAP 
00
40
F0
40
40
30
00
00
00
ENDCHAR
STARTCHAR char75
ENCODING 117
SWIDTH 556 0
DWIDTH 5 0
BBX 5 9 0 -3
BITMAP 
00
00
90
90
90
70
00
00
00
ENDCHAR
STARTCHAR char76
ENCODING 118
SWIDTH 556 0
DWIDTH 5 0
BBX 5 9 0 -3
BITMAP 
00
00
D8
50
20
20
00
00
00
ENDCHAR
STARTCHAR char77
ENCODING 119
SWIDTH 556 0
DWIDTH 5 0
BBX 5 9 0 -3
BITMAP 
00
00
A8
A8
50
50
00
00
00
ENDCHAR
STARTCHAR char78
ENCODING 120
SWIDTH 556 0
DWIDTH 5 0
BBX 5 9 0 -3
BITMAP 
00
00
A0
40
40
A0
00
00
00
ENDCHAR
STARTCHAR char79
ENCODING 121
SWIDTH 556 0
DWIDTH 5 0
BBX 5 9 0 -3
BITMAP 
00
00
D8
50
50
20
20
40
00
ENDCHAR
STARTCHAR char7A
ENCODING 122
SWIDTH 556 0
DWIDTH 5 0
BBX 5 9 0 -3
BITMAP 
00
00
F0
20
40
F0
00
00
00
ENDCHAR
STARTCHAR char7B
ENCODING 123
SWIDTH 556 0
DWIDTH 5 0
BBX 5 9 0 -3
BITMAP 
20
40
40
80
40
40
20
00
00
ENDCHAR
STARTCHAR char7C
ENCODING 124
SWIDTH 556 0
DWIDTH 5 0
BBX 5 9 0 -3
BITMAP 
80
80
80
80
80
80
80
00
00
ENDCHAR
STARTCHAR char7D
ENCODING 125
SWIDTH 556 0
DWIDTH 5 0
BBX 5 9 0 -3
BITMAP 
80
40
40
20
40
40
80
00
00
ENDCHAR
STARTCHAR char7E
ENCODING 126
SWIDTH 556 0
DWIDTH 5 0
BBX 5 9 0 -3
BITMAP 
00
00
50
A0
00
00
00
00
00
ENDCHAR
ENDFONT
